<?xml version="1.0" encoding="UTF-8"?>
<svg viewBox="0 0 55.999 65.645" xmlns="http://www.w3.org/2000/svg">
 <path d="m55.592 39.849c0 14.347-11.462 24.951-26.439 24.951s-29.008-11.767-27.132-25.99c1.7321-13.134 12.033-26.602 27.009-26.48 15.099 0.12248 26.388 13.024 26.561 27.519z" fill="#ff0" stroke-linejoin="round" stroke-width="1.8"/>
 <g fill-rule="evenodd">
  <g fill="#ff0">
   <path d="m24.32 11.422c-1.2889-1.9333-7.7331-8.3776-7.7331-8.3776l11.814 0.8592-2.5777 3.0073 2.1481 1.074 7.9479-2.5777 3.6518 0.8592 5.3702-1.7185-5.7998 6.8739-3.6518 1.7185-11.17-1.7185z" stroke="#000"/>
   <path d="m18.699 2.8297l7.5183-2.3629 1.5037 1.9333 8.997-1.4527-1.9083 2.3119 0.6444 0.7703 6.4443-2.7035 3.2221 0.2148 0.8592 1.7185-1.7185 1.9333-4.9406 1.074-3.2221-1.074-8.5924 2.7925-1.9333-1.074 3.0073-3.2221-9.8812-0.8592z"/>
  </g>
  <path d="m21.912 13.498c0.22784-0.30378 1.9941-1.8312 1.9941-1.8312l11.924 1.4809 11.164-3.4935 3.0379 0.5696-0.5696 1.7847-10.784 1.1772-3.6834 1.7088-13.082-1.3965z" fill="#edd400" stroke="#000" stroke-width=".6"/>
  <path d="m30.076 21.898c0.38905 1.2276 0.79549 2.4377 1.4819 3.3679 2.981-0.43271 4.3885-0.25986 7.1399 0.40416-0.031258 0.79468 0.92697 0.59988 1.0777 1.2124 0.24922 1.0127-0.53643 0.99029-0.80829 1.4818-2.9963 0.5425-3.5836-2.6195-6.8705-1.2124 0.65418 1.3664 0.91068 3.1308 1.7513 4.3109 2.155-0.27454 4.6844 0.17288 6.1969 1.0777 1.0846 0.64881 2.132 1.3485 1.886 3.0984-0.08028 0.5708-0.22969 1.61-0.53886 2.2902-0.081772 0.17998-0.38259 0.19588-0.53886 0.40413-0.27846 0.37101-0.383 1.0249-0.53887 1.2124-0.49332 0.59356-1.2197 0.5708-1.6166 1.4819-0.76182-0.13323-0.74753 0.50975-1.2124 0.67356 0.17808 0.73059 0.34082 1.8943 0.943 2.5596-0.29207 1.0221 0.64959 1.8632-0.53887 2.1554-1.0081-0.83307-0.88804-2.7942-1.4819-4.0414-1.5068 0.17364-2.7389 0.64917-3.9067 0.80829-0.094189 1.6108 1.3928 2.6515 0.67356 4.0415-2.0244 0.013451-0.91739-3.1452-2.1554-4.0415-2.9298 0.19627-5.2488 0.008888-6.8705-1.3472-0.46006-0.92185-0.27239-2.0746 0.67359-2.2902 1.7169-0.39107 4.1077 3.2193 5.9275 1.886-0.5832-1.5274-0.64018-3.581-1.4819-4.8497-4.0173 0.78715-7.9836-1.609-6.601-6.1969 0.77813-0.50598 1.1534-1.4752 1.886-2.0207 0.44711-0.33299 1.0664-0.26833 1.3472-0.80829 0.028294-1.8292-1.9469-2.7703-1.2124-4.4456 1.6547 0.32103 1.1747 2.7769 2.1554 3.772 1.4431-0.12864 2.2529-0.89047 3.5026-1.2124-0.19236-1.3944-1.6435-2.2923-0.94302-3.772h0.67359zm-2.5596 6.8705c0.39364 1.4475 0.92684 2.7553 1.7513 3.772 1.2481-0.45548 2.291-0.37437 3.5026-0.94302-0.29316-1.548-1.2911-2.391-1.4819-4.0415-1.721-0.059523-2.6185 0.70442-3.772 1.2124zm-1.0777 0.5389c-0.89626 0.9449-2.4141 1.2682-2.2902 3.2332 1.1014 0.87835 2.5747 0.38528 3.9067 0.26943-0.29004-1.4163-0.79764-2.6152-1.6166-3.5026zm8.8912 6.7358c0.8188 0.97736 0.98558 2.6069 1.6166 3.772 1.6721-0.61553 3.9234-2.2052 2.6943-4.4456-1.2755-0.22684-3.9865-0.79657-4.3109 0.67359zm-4.9845 0.943c0.75563 1.2651 0.6547 3.3868 1.6166 4.4456 1.357-0.26738 2.7583-0.3408 3.9067-1.0777-0.28439-1.2874-0.6205-2.5228-1.2124-3.5026-0.031796-0.59681-0.097271-1.16-0.67357-1.2124-0.96726 0.37046-3.1077 0.15628-3.6373 1.3471z"/>
  <path d="m16.805 46.3c0.47784 0.79602-0.23844 2.6888-1.3472 2.2902-0.060467-1.2729 0.20988-2.2148 1.3472-2.2902z"/>
  <path d="m29.603 51.688c-0.063719 0.42301 0.36252 0.35591 0.40413 0.67359-0.26835 0.58493-0.51825 1.188-1.4819 1.0777-0.40361-0.99218 0.26959-1.5775 1.0777-1.7513z"/>
  <path d="m20.981 51.823c0.47338 0.68423 0.099276 1.8141-0.53886 2.1555-1.088-0.27174-0.46355-2.3144 0.53886-2.1555z"/>
  <path d="m38.181 1.5789c-0.64418 0.71701-1.5249 1.1708-2.4249 1.4818 0.42533 0.54355 1.1143 0.043082 1.6175-0.099459 1.7692-0.66249 3.4171-1.7991 5.3586-1.8815 0.87645-0.050057 1.762-0.07211 2.6359-0.021581 1.2702 0.3789 1.9769 2.0775 1.2307 3.2075-0.49739 0.39642-0.98919 0.78697-1.2658 1.3569-0.47891 0.24609-0.89723 0.56754-1.0676 1.0883-0.51051 0.20694-0.9681 0.45222-1.2073 0.97726-0.92247 1.1705-2.2177 2.0088-3.0192 3.2807-0.021278 0.44619 0.74764 0.013688 0.96548-0.11858 0.53199-0.39857 1.1653-0.65429 1.8357-0.60536 0.57486-0.15269 1.055-0.55215 1.6565-0.63612 1.5177-0.35607 3.0877-0.56841 4.6484-0.47139 0.7546 0.087449 1.6751 0.19053 2.1089 0.90591 0.32288 0.49006 0.090584 1.168-0.41034 1.4334-0.45869 0.30658-1.0516 0.38905-1.4226 0.82583-0.27504 0.29416-0.65075 0.54638-1.0737 0.46774-0.61608 0.03713-1.1209 0.49061-1.7465 0.49921-2.2764 0.2865-4.5887-0.25535-6.8514 0.20776-0.2738 0.084539-1.0333-0.48885-0.90143 0.041037 0.3589 0.3638 0.96264 0.38098 1.2604 0.82053 0.40879 0.41202 0.92812 0.56754 1.4557 0.70049 0.57738 0.3316 1.076 0.78115 1.6302 1.1486 2.1129 1.5485 4.1588 3.242 5.7641 5.3288 4.1067 3.9477 5.4126 6.8714 5.6512 10.9 0.28736 0.43219 0.48404 0.9089 0.40589 1.425 0.1391 0.54216 0.58519 0.96402 0.61991 1.5433 0.2603 1.5006 0.005795 3.0324 0.22058 4.5383 0.17799 1.7787 0.23592 3.585-0.092434 5.351-0.16639 0.83485-0.21777 1.705-0.53756 2.5005-0.23386 0.53154-0.67685 0.97013-0.73126 1.5748-0.11576 0.74947-0.11981 1.5431-0.51706 2.2162-0.644 1.2618-1.7521 2.2591-2.1902 3.6302-0.91852 0.3971-1.4935 1.2684-2.3012 1.8262-3.8079 3.2159-8.0986 5.9843-12.893 7.4588-4.7653 1.5013-9.9284 1.4914-14.762 0.31364-4.6618-1.121-9.0511-3.1721-13.167-5.5992-0.98998-0.48225-1.3707-1.6975-2.4099-2.1135-1.4287-1.9641-3.3009-3.6519-4.2379-5.938-0.34406-0.53661-0.20474-1.3464-0.80784-1.7158-1.1256-4.808-1.5659-7.3014-0.88176-11.341-0.05011-0.65174 0.006372-1.3137 0.35095-1.8825 0.31532-0.82127 0.5157-1.6866 0.59206-2.5631 0.59133-0.49549 0.88695-1.266 0.94299-2.0207 0.60176-0.31534 0.71287-1.0429 0.94302-1.6166 0.009361-0.39834-0.13134-1.2219 0.45479-1.2099 0.62059 0.11406 0.89217-0.7092 1.1144-1.157 0.28941-0.42002 0.83136-0.62715 0.95356-1.1825 0.19291-0.52087 0.684-0.77289 1.0681-1.1211 0.46305-0.558 0.67154-1.2815 1.1532-1.8298 0.57866-0.70767 1.2565-1.3399 1.7125-2.1414 0.2404-0.39598 0.76242-0.40743 1.0114-0.80252 0.32512-0.36116 0.63244-0.76311 1.0814-0.97763 0.45644-0.3542 0.49182-1.0345 0.99412-1.3506 0.97485-0.72726 1.9221-1.4921 2.9339-2.1696 1.9-1.3041 4.0357-2.8125 6.3583-3.0483 2.5516-0.28904 5.1689-0.37547 7.7096-0.16121 1.6238 0.17018 3.192 0.62054 4.8286 0.52501 0.58311-0.12235 3.4141-1.3603 4.0219-1.3169 0.73631-0.061805 0.022366 2.0796 0.43869 1.3857-0.95117-0.12733-3.3317 0.6262-4.2438 0.74292-0.56469-0.33504-1.1824 0.59387-1.7648 0.46995-3.5345 0.18303-7.5887-2.4316-10.638-1.0286-0.69047-0.44443 0.073526-2.6835-0.43416-3.3126-0.47144-0.62188-0.94983-1.2536-1.5692-1.7376-0.61679-0.053886-0.70917-0.76104-1.0082-1.1731-0.82302-1.237-2.0987-2.0752-2.9743-3.2686-0.097099-0.5698 0.066578-1.1867 0.43987-1.6287 0.68339-0.14165 1.3762-0.23337 2.0499-0.42138 2.7267-0.6491 5.4211-1.5566 8.24-1.7045 0.59555 0.1818 0.59319 1.0847 1.248 1.1673 0.67616-1.05e-4 1.3154-0.26793 1.967-0.41551 1.9092-0.58608 3.8729-1.3547 5.9069-1.0773 0.8652 0.13161 1.6874 0.66063 1.9722 1.5205zm-10.238 1.3471c-0.44711-0.42107-1.0052-0.6948-1.4819-1.0777-2.1971 0.1689-4.2656 1.0682-6.4663 1.2124-0.18759 0.50724-1.2052 0.18413-1.144 0.81324 3.1224 0.22721 6.1886-0.85533 9.3104-0.53715 0.73914 0.097703 1.4846 0.32699 2.072 0.80165 0.16548 0.76683-0.00556 1.6569 0.53023 2.305 0.5821 0.13274 1.0103-0.45411 1.5697-0.51846 0.57014-0.23673 1.1621-0.70392 1.1534-1.3801 0.15402-1.0248 1.0874-1.6539 1.9163-2.1354 0.21595-0.16473 0.89507-0.45626 0.73646-0.69115-2.7702 0.11034-5.4421 0.96276-8.1962 1.2076zm15.762-0.6736c-0.93087 0.036186-1.8688 0.082074-2.7786 0.29764-0.48683 0.5049-1.238 0.46132-1.8789 0.47674-0.59082 0.16459-1.0559 0.64718-1.6829 0.70594-0.58397 0.16913-1.1795 0.30674-1.7425 0.5404-0.5036-0.04497-1.5278-0.139-1.3802 0.6508 0.33181 0.38814 0.88144 0.003881 1.2688-0.11302 0.43712-0.16357 0.93082-0.39432 1.397-0.24874 0.51274 0.32866 0.65427 1.1108 1.3089 1.2335 1.1111 0.12282 2.1127-0.55394 3.2156-0.51523 0.5029-0.005402 1.0247-0.10853 1.4151-0.44611 0.53066-0.34107 1.163-0.4341 1.764-0.57198 0.51198-0.17896 1.0426-0.52171 1.2297-1.0495 0.029881-0.63446-0.68018-0.98185-1.234-0.95974-0.30021-0.02145-0.60131-0.006765-0.90177-7.08e-4zm-20.611 2.6943c-1.1376 0.080213-2.3423-0.45684-3.424 0.093743-0.38903 0.4239 0.52921 0.69726 0.6901 1.0681 0.52848 0.54305 1.0896 1.0852 1.791 1.3977-0.088814 0.67086 0.7447 0.7963 1.0798 1.2191 1.0164 1.0069 1.7432 2.3735 3.0892 2.9965 0.54945 0.23956 1.1662 0.31133 1.7585 0.23002-1.3377-1.0553-2.1371-2.6119-3.3679-3.772-0.14763-0.71696-0.75993-1.3784-0.50713-2.145 0.2017-0.60381 0.93132-0.7856 1.1807-1.3576-0.77176 0.008863-1.5211 0.22955-2.2902 0.26943zm2.6943 1.886c1.1743 0.50826 2.491 0.27871 3.6944 0.010437 0.54612-0.19588-0.070326-0.76164 0.068047-1.1729-0.11026-0.67825-0.98749-0.24955-1.4412-0.24751-0.91407 0.19643-1.6818 0.74861-2.3212 1.41zm9.0259-0.4042c-0.10541 0.50236-0.69215 0.49955-1.0978 0.54355-0.47902 0.071271-0.78608 0.50453-1.2181 0.69357-1.4606 0.7856-3.1353 1.012-4.7572 1.2287-0.26266 0.077906-1.0297-0.026169-0.52118 0.33805 0.7291 0.75818 1.718 1.3551 2.0636 2.4027-0.035032 0.52609 0.30438 1.117 0.895 0.90835 2.4963 0.17081 5.0845 0.29043 7.4829-0.5536 0.49137-0.31437 0.79481-0.83645 1.2308-1.2159 1.3373-1.4014 2.6915-2.7868 4.005-4.2106-2.0764 0.38502-4.2605 0.74202-6.3316 0.13468-1.0315 0.67967-1.1236 2.0229-1.7329 3.0016-0.4137 0.39202-0.57282 0.92946-0.79497 1.4019-0.45571 0.46628-1.1235 0.028294-0.75162-0.53865 0.22147-0.74347 0.7705-1.3211 1.1458-1.9798 0.077908-0.6042 0.46789-1.0197 0.79859-1.4816 0.0998-0.29429 0.36333-0.85908-0.18577-0.67359-0.076374 0.007972-0.15411 0.013845-0.23035 6.29e-4zm6.8705 5.3886c1.3805 0.449 2.809-0.045128 4.1762-0.29382 0.78122-0.1739 1.5385-0.3622 2.316-0.54882 0.26664-0.061201 1.0846-0.43046 0.66382-0.64005-2.2274 0.014186-4.5456 0.13507-6.5843 1.1214-0.19914 0.10601-0.39136 0.22556-0.57169 0.36131zm3.9068 8.0829c0.050579-0.44197-0.38248-0.65877-0.67714-0.76526-0.26973-0.54961-0.79506-0.86597-1.3527-1.0488-0.56781-0.35842-0.77395-1.1536-1.4758-1.3231-0.54181-0.2076-1.0299-0.52994-1.5205-0.82704-0.59112-0.18777-1.01-0.64915-1.3708-1.1278-0.34571-0.5257-1.0958-0.76361-1.5747-0.2608-0.39911 0.36446-0.89422 0.58446-1.4262 0.66171-1.5339 0.28133-3.1011 0.098411-4.6434-0.003041-1.3172-0.12107-2.6413-0.16562-3.9551-0.31807-1.6964-0.22692-3.37-0.69018-4.9053-1.4541-0.46164 0.3594-0.9213 0.74795-1.4819 0.94299-0.87906 1.1361-2.1992 1.8646-2.9638 3.0984-0.62615 0.046333-0.998 0.71586-1.5656 0.88643-1.487 1.4687-2.7725 3.1368-4.3618 4.5022-0.13001 0.78797-0.9717 1.1122-1.3571 1.7476-0.88538 1.1956-1.6401 2.4833-2.5676 3.6488-0.82842 1.0823-1.7541 2.101-2.453 3.2746 0.034875 0.42256 0.57106 0.78409 0.14092 1.2207-0.32568 0.68072-0.81613 1.2625-1.3072 1.8286-0.087056 1.1773-0.72954 0.81369-0.93051 3.3601-0.41391 4.1009-1.319 6.4683 0.97904 12.009 0.41538 0.41798 0.64558 0.96811 0.89789 1.4923 0.2087 0.56353 0.73017 0.87258 1.1968 1.1507 0.14354 0.48765 0.38743 0.98465 0.97304 0.92175 0.59154 0.24179 0.50312 0.99326 0.7399 1.4856 0.30986 0.53931 0.96651 0.69283 1.4446 1.0382 0.81353 0.46502 1.5473 1.0557 2.3464 1.5403 0.67477 0.34901 1.4628 0.544 1.9853 1.1303 0.71355 0.62177 1.7142 0.67912 2.5066 1.1588 0.36144 0.54546 1.0969 0.26662 1.6136 0.48791 0.65911 0.66926 1.6227 0.83247 2.4845 1.1005 1.4289 0.37133 2.9044 0.51463 4.3742 0.60638 0.78616 0.67794 1.8967 0.56408 2.8592 0.52242 0.56469-0.17592 0.99973 0.30192 1.5179 0.29216 0.81065 0.036209 1.6215 0.001442 2.4229-0.1304 0.78702-0.11501 1.5856-0.1969 2.3798-0.11774 0.88795-0.05394 1.6548-0.76342 2.5728-0.56762 1.9011 0.007759 3.5004-1.2528 5.3562-1.4807 0.53373-0.63871 1.3561-0.94241 2.1554-1.0777 0.63984-0.70261 1.5594-1.0208 2.3806-1.4508 0.32087-0.558 0.73968-1.0586 1.2733-1.4222 0.69732-0.58178 1.45-1.1404 1.927-1.9304 0.044483-0.46811 0.63939-0.61794 0.66166-1.1151 0.20925-0.56794 0.45655-1.1648 0.98098-1.5128 0.3939-0.43072 0.29885-1.093 0.6824-1.5337 0.37595-0.35308 0.45374-0.75873 0.49826-1.2401 0.35141-0.31073 0.52255-0.69983 0.60048-1.1868 0.13841-0.67094 0.40138-1.3019 0.64056-1.94 0.33099-0.91244 0.38407-1.8866 0.55192-2.8342 0.29102-2.2017-0.054737-4.4161-0.24928-6.6105-0.052166-0.888-0.19762-1.7676-0.46734-2.6166-3.1308-6.0061 2.2862-1.3923-4.9875-10.722-0.39666-0.38541-0.84999-0.77666-0.99046-1.3357-0.77189-0.81222-1.7561-1.3784-2.5596-2.1555z"/>
 </g>
</svg>
